<?xml version="1.0" standalone="no"?>
<!DOCTYPE svg PUBLIC "-//W3C//DTD SVG 20010904//EN"
 "http://www.w3.org/TR/2001/REC-SVG-20010904/DTD/svg10.dtd">
<svg version="1.0" xmlns="http://www.w3.org/2000/svg"
 width="320.000000pt" height="350.000000pt" viewBox="0 0 320.000000 350.000000"
 preserveAspectRatio="xMidYMid meet">
<metadata>
Created by potrace 1.15, written by Peter Selinger 2001-2017
</metadata>
<g transform="translate(0.000000,350.000000) scale(0.100000,-0.100000)"
fill="#000000" stroke="none">
<path d="M1210 2958 c-254 -330 -551 -703 -752 -947 -214 -258 -214 -257 38
-561 195 -235 271 -332 612 -774 262 -340 328 -420 345 -418 35 4 101 48 119
80 l17 29 -320 648 c-176 357 -324 668 -329 692 -6 24 -7 62 -4 86 4 26 133
296 329 694 l323 653 -21 32 c-23 34 -66 63 -107 72 -23 6 -43 -17 -250 -286z"/>
<path d="M2520 2958 c-255 -332 -553 -706 -752 -947 -214 -258 -214 -257 38
-561 195 -236 304 -373 624 -790 166 -217 306 -399 311 -404 14 -16 116 42
138 78 l21 33 -321 649 c-176 357 -325 669 -330 694 -7 31 -6 62 1 93 5 26
154 335 330 687 310 620 320 641 306 668 -8 15 -22 35 -33 44 -18 17 -84 48
-100 48 -4 0 -109 -132 -233 -292z"/>
</g>
</svg>
