<svg xmlns="http://www.w3.org/2000/svg" viewBox="0 0 260.651 72.062"><defs><style>.a{fill:#00548f;}.b{fill:#00558f;}.b,.c{fill-rule:evenodd;}.c{fill:#92bdd9;}</style></defs><title>Artboard 1</title><path class="a" d="M124.071,34.476a1.447,1.447,0,0,1,1.43,1.43v3.759a1.446,1.446,0,0,1-1.43,1.429h-9.528V70.1a1.447,1.447,0,0,1-1.43,1.43h-4.288A1.446,1.446,0,0,1,107.4,70.1V41.093H97.867a1.444,1.444,0,0,1-1.429-1.429V35.906a1.446,1.446,0,0,1,1.429-1.43Z"/><path class="a" d="M145.352,34.476q6.4,0,9.953,3.018t3.547,8.841q0,5.824-3.547,8.894t-9.953,3.07h-8.471V70.1a1.446,1.446,0,0,1-1.429,1.43h-4.288a1.447,1.447,0,0,1-1.43-1.43v-34.2a1.447,1.447,0,0,1,1.43-1.43Zm-8.471,17.205h8.206a8.616,8.616,0,0,0,4.817-1.191q1.8-1.191,1.8-4.155t-1.8-4.1a8.929,8.929,0,0,0-4.817-1.139h-8.206Z"/><path class="a" d="M179.233,34.476a1.668,1.668,0,0,1,1.271.45,3.829,3.829,0,0,1,.74,1.35l12.97,33.457a1.174,1.174,0,0,1,.054.37,1.447,1.447,0,0,1-1.43,1.43h-3.812a1.981,1.981,0,0,1-1.482-.45,2.671,2.671,0,0,1-.582-.873l-2.276-5.876H167.956l-2.276,5.876a2.671,2.671,0,0,1-.582.873,1.983,1.983,0,0,1-1.482.45H159.8a1.447,1.447,0,0,1-1.43-1.43,1.146,1.146,0,0,1,.054-.37L171.4,36.276a3.814,3.814,0,0,1,.741-1.35,1.662,1.662,0,0,1,1.271-.45Zm2.911,23.24-5.823-15.088L170.5,57.716Z"/><path class="a" d="M221.107,59.781a1.525,1.525,0,0,1,.556-1.032,1.577,1.577,0,0,1,.979-.345h4.288a1.518,1.518,0,0,1,1.032.4,1.174,1.174,0,0,1,.4,1.032,13.523,13.523,0,0,1-1.085,4.341,11.336,11.336,0,0,1-2.832,3.917,14.908,14.908,0,0,1-4.817,2.859,19.785,19.785,0,0,1-7.041,1.111,17.838,17.838,0,0,1-6.458-1.085,13.714,13.714,0,0,1-4.765-3.018,13.47,13.47,0,0,1-3.044-4.632,19.036,19.036,0,0,1-1.3-5.876q-.107-2.011-.105-4.447t.105-4.446a19.03,19.03,0,0,1,1.3-5.876,13.474,13.474,0,0,1,3.044-4.633,13.771,13.771,0,0,1,4.765-3.018,17.838,17.838,0,0,1,6.458-1.085,19.783,19.783,0,0,1,7.041,1.112,14.889,14.889,0,0,1,4.817,2.858,11.276,11.276,0,0,1,2.832,3.943,13.733,13.733,0,0,1,1.085,4.314,1.174,1.174,0,0,1-.4,1.032,1.518,1.518,0,0,1-1.032.4h-4.288a1.687,1.687,0,0,1-1.006-.344,1.486,1.486,0,0,1-.582-1.033,5.855,5.855,0,0,0-.741-2.064,6.375,6.375,0,0,0-1.589-1.8,8.193,8.193,0,0,0-2.541-1.3,11.594,11.594,0,0,0-3.6-.5,9.365,9.365,0,0,0-3.6.636,7.579,7.579,0,0,0-2.567,1.693,7.227,7.227,0,0,0-1.588,2.541,10.819,10.819,0,0,0-.662,3.124q-.107,2.011-.105,4.446t.105,4.447a10.611,10.611,0,0,0,.662,3.149,7.258,7.258,0,0,0,1.588,2.515,7.581,7.581,0,0,0,2.567,1.694,9.384,9.384,0,0,0,3.6.635,11.565,11.565,0,0,0,3.6-.5,8.54,8.54,0,0,0,2.568-1.3,6.2,6.2,0,0,0,1.614-1.8A5.841,5.841,0,0,0,221.107,59.781Z"/><path class="a" d="M259.221,34.476a1.447,1.447,0,0,1,1.43,1.43v3.759a1.446,1.446,0,0,1-1.43,1.429h-9.528V70.1a1.447,1.447,0,0,1-1.43,1.43h-4.288a1.446,1.446,0,0,1-1.429-1.43V41.093h-9.529a1.444,1.444,0,0,1-1.429-1.429V35.906a1.446,1.446,0,0,1,1.429-1.43Z"/><path class="a" d="M97.419,23.216a.882.882,0,0,1-.872-.871V1.515A.834.834,0,0,1,96.805.9a.838.838,0,0,1,.613-.258h1.325A.841.841,0,0,1,99.357.9a.838.838,0,0,1,.259.612V17.38l10.5-15.768a3.923,3.923,0,0,1,.533-.661,1.035,1.035,0,0,1,.76-.307h1.131a.841.841,0,0,1,.613.258.838.838,0,0,1,.259.612V22.346a.882.882,0,0,1-.872.871h-1.325a.882.882,0,0,1-.872-.871V6.481l-10.5,15.768a3.862,3.862,0,0,1-.532.661,1.032,1.032,0,0,1-.76.306Z"/><path class="a" d="M135.6.645a.841.841,0,0,1,.614.258.837.837,0,0,1,.258.612V22.346a.88.88,0,0,1-.872.871H134.28a.88.88,0,0,1-.872-.871V13.252H122.036v9.093a.882.882,0,0,1-.872.871h-1.325a.866.866,0,0,1-.613-.242.82.82,0,0,1-.259-.629V1.515A.834.834,0,0,1,119.225.9a.838.838,0,0,1,.613-.258h1.325a.841.841,0,0,1,.613.258.838.838,0,0,1,.259.612v8.835h11.372V1.515A.837.837,0,0,1,133.666.9a.841.841,0,0,1,.614-.258Z"/><path class="a" d="M151.338,0a.841.841,0,0,1,.614.258.839.839,0,0,1,.259.613v2.9a12.1,12.1,0,0,1,3.715.758,10.509,10.509,0,0,1,3.053,1.757,8.361,8.361,0,0,1,2.067,2.547,6.686,6.686,0,0,1,0,6.191,8.355,8.355,0,0,1-2.067,2.547,10.465,10.465,0,0,1-3.053,1.757,12.083,12.083,0,0,1-3.715.758v2.9a.883.883,0,0,1-.873.871h-1.324a.881.881,0,0,1-.873-.871v-2.9a12.083,12.083,0,0,1-3.716-.758,10.465,10.465,0,0,1-3.053-1.757,8.355,8.355,0,0,1-2.067-2.547,6.686,6.686,0,0,1,0-6.191,8.361,8.361,0,0,1,2.067-2.547,10.509,10.509,0,0,1,3.053-1.757,12.1,12.1,0,0,1,3.716-.758V.871A.838.838,0,0,1,149.4.258.841.841,0,0,1,150.014,0Zm-2.2,6.674a8.789,8.789,0,0,0-2.617.5A7.312,7.312,0,0,0,144.457,8.3,5.027,5.027,0,0,0,143.1,9.931a4.368,4.368,0,0,0,0,4,5.012,5.012,0,0,0,1.357,1.628,7.3,7.3,0,0,0,2.067,1.128,8.758,8.758,0,0,0,2.617.5Zm9.6,5.256a4.283,4.283,0,0,0-.484-2A5.027,5.027,0,0,0,156.895,8.3a7.312,7.312,0,0,0-2.067-1.128,8.788,8.788,0,0,0-2.616-.5V17.187a8.758,8.758,0,0,0,2.616-.5,7.3,7.3,0,0,0,2.067-1.128,5.012,5.012,0,0,0,1.357-1.628A4.279,4.279,0,0,0,158.737,11.931Z"/><path class="a" d="M164.681,9.061a10.148,10.148,0,0,1,.63-3.4,8.007,8.007,0,0,1,1.729-2.773,8.212,8.212,0,0,1,2.778-1.87,10.649,10.649,0,0,1,7.56,0,8.212,8.212,0,0,1,2.778,1.87,8.007,8.007,0,0,1,1.729,2.773,10.148,10.148,0,0,1,.63,3.4q.1,2.87,0,5.74a10.725,10.725,0,0,1-.662,3.4,8.168,8.168,0,0,1-1.729,2.789,7.947,7.947,0,0,1-2.762,1.871,10.807,10.807,0,0,1-7.528,0,7.947,7.947,0,0,1-2.762-1.871,8.168,8.168,0,0,1-1.729-2.789,10.725,10.725,0,0,1-.662-3.4Q164.584,11.931,164.681,9.061Zm14.764.161a8.336,8.336,0,0,0-.5-2.644,5.085,5.085,0,0,0-1.212-1.87A5.033,5.033,0,0,0,175.908,3.6a7.376,7.376,0,0,0-4.62,0,5.025,5.025,0,0,0-1.825,1.112,5.254,5.254,0,0,0-1.228,1.87,7.5,7.5,0,0,0-.484,2.644q-.066,1.452-.064,2.709t.064,2.708a7.489,7.489,0,0,0,.484,2.644,5.241,5.241,0,0,0,1.228,1.87,5.02,5.02,0,0,0,1.825,1.113,7.385,7.385,0,0,0,4.62,0,4.911,4.911,0,0,0,3.037-2.983,8.328,8.328,0,0,0,.5-2.644q.064-1.451.065-2.708T179.445,9.222Z"/><path class="a" d="M200.9.645A.841.841,0,0,1,201.51.9a.838.838,0,0,1,.259.612V2.676a.883.883,0,0,1-.872.871h-6.042v18.8a.88.88,0,0,1-.872.871h-1.324a.882.882,0,0,1-.873-.871V3.547h-6.041a.883.883,0,0,1-.872-.871V1.515A.834.834,0,0,1,185.131.9a.838.838,0,0,1,.613-.258Z"/><path class="a" d="M219.213,20.314a.882.882,0,0,1,.873.871v1.161a.882.882,0,0,1-.873.871H206.161a.882.882,0,0,1-.872-.871V1.515A.834.834,0,0,1,205.548.9a.838.838,0,0,1,.613-.258h12.794a.839.839,0,0,1,.613.258.834.834,0,0,1,.259.612V2.676a.883.883,0,0,1-.872.871h-10.6v6.8h9.886a.882.882,0,0,1,.872.871v1.161a.882.882,0,0,1-.872.871h-9.886v7.062Z"/><path class="a" d="M229.164,11.447l11.017,10.479a1.257,1.257,0,0,1,.259.339.624.624,0,0,1,.064.242.716.716,0,0,1-.711.709h-2a1.41,1.41,0,0,1-.743-.177,2.341,2.341,0,0,1-.42-.307l-9.143-8.706v8.319a.882.882,0,0,1-.872.871h-1.325a.882.882,0,0,1-.872-.871V1.515A.834.834,0,0,1,224.674.9a.838.838,0,0,1,.613-.258h1.325a.841.841,0,0,1,.613.258.838.838,0,0,1,.259.612V9.028l8.626-7.9a2.356,2.356,0,0,1,.42-.306,1.407,1.407,0,0,1,.743-.178h1.873a.684.684,0,0,1,.5.21.682.682,0,0,1,.21.5.624.624,0,0,1-.064.242,1.2,1.2,0,0,1-.259.339Z"/><path class="a" d="M244.542,9.222q-.066,1.452-.064,2.709t.064,2.708a6.5,6.5,0,0,0,1.631,4.337,5.706,5.706,0,0,0,4.41,1.661,7.713,7.713,0,0,0,2.617-.387,5.44,5.44,0,0,0,1.761-1,4.283,4.283,0,0,0,1.065-1.4,8.268,8.268,0,0,0,.565-1.6.782.782,0,0,1,.323-.532.912.912,0,0,1,.517-.177h1.486a.716.716,0,0,1,.711.709,6.709,6.709,0,0,1-.549,2.322,7.494,7.494,0,0,1-1.6,2.37A8.66,8.66,0,0,1,254.7,22.8a10.265,10.265,0,0,1-4.119.741,10.005,10.005,0,0,1-3.747-.661,8.469,8.469,0,0,1-2.827-1.822,8.062,8.062,0,0,1-1.825-2.757,10.149,10.149,0,0,1-.711-3.5q-.1-2.87,0-5.74a10.219,10.219,0,0,1,.711-3.482,8.032,8.032,0,0,1,1.825-2.773A8.475,8.475,0,0,1,246.836.983a10,10,0,0,1,3.747-.661,10.264,10.264,0,0,1,4.119.742,8.659,8.659,0,0,1,2.778,1.854,7.5,7.5,0,0,1,1.6,2.37,6.709,6.709,0,0,1,.549,2.322.716.716,0,0,1-.711.709h-1.486a.9.9,0,0,1-.517-.177.778.778,0,0,1-.323-.532,8.28,8.28,0,0,0-.565-1.6,4.3,4.3,0,0,0-1.065-1.4,5.449,5.449,0,0,0-1.761-1,7.725,7.725,0,0,0-2.617-.387,5.708,5.708,0,0,0-4.41,1.661A6.506,6.506,0,0,0,244.542,9.222Z"/><path class="b" d="M63.959,61.639a28.541,28.541,0,0,1-39.9-18.978c-.122-.495-.228-.99-.322-1.485Zm-47.6-24.228A35.448,35.448,0,0,0,60.2,70.266a30.464,30.464,0,0,0,14.328-7.55l.036-.031.007-.006.028-.024.036-.031.021-.019.014-.011.035-.031.036-.031h0l.035-.03.035-.031.016-.014.019-.017.036-.031.03-.027.005,0,.035-.031.035-.032.01-.009.025-.022.035-.031.024-.022.011-.009.035-.032.034-.031,0,0,.031-.028.035-.032.019-.016.016-.015.035-.032L75.336,62v0l.035-.032.034-.031.012-.012.022-.02.035-.032.027-.025.008-.007.034-.032.035-.032.006-.006.028-.026.034-.032.021-.019.014-.013.034-.032.034-.032h0l.034-.032.034-.032.015-.014.019-.018.035-.032.029-.027.005-.005.034-.032.035-.033L76,61.382l.025-.024.034-.033.023-.022.011-.011.034-.032.034-.032,0,0,.031-.03.033-.033.017-.017.017-.016.034-.033.031-.03,0,0,.034-.033L76.394,61l.012-.011.022-.022.033-.033.025-.025.009-.009.033-.033.033-.033.006-.006.027-.027.033-.034.019-.019.014-.014.033-.033.033-.034-.019-.01.052-.047L5.487,24.419,8.72,33.534Z"/><path class="b" d="M79.786,30.639,39.492,10.114a28.538,28.538,0,0,1,39.954,18.95q.193.787.34,1.575M23.974,2.21,15.288,5.259,86.427,41.492h0l0-.021a29.071,29.071,0,0,0-.275-14.055A35.445,35.445,0,0,0,32.127,6.362Z"/><path class="c" d="M4.831,8.248,0,9.126l1.788,5.043,17.029,8.665L81.284,54.617a35.158,35.158,0,0,0,2.979-5.852l.04-.08-.007,0h0L21.852,16.908Z"/><path class="c" d="M18.817,22.834,81.284,54.617A35.176,35.176,0,0,0,84.3,48.68L21.852,16.908a35.094,35.094,0,0,0-3.035,5.925"/></svg>