<?xml version="1.0" standalone="no"?>
<!DOCTYPE svg PUBLIC "-//W3C//DTD SVG 20010904//EN"
 "http://www.w3.org/TR/2001/REC-SVG-20010904/DTD/svg10.dtd">
<svg version="1.0" xmlns="http://www.w3.org/2000/svg"
 width="320.000000pt" height="350.000000pt" viewBox="0 0 320.000000 350.000000"
 preserveAspectRatio="xMidYMid meet">
<metadata>
Created by potrace 1.15, written by Peter Selinger 2001-2017
</metadata>
<g transform="translate(0.000000,350.000000) scale(0.100000,-0.100000)"
fill="#000000" stroke="none">
<path d="M400 3234 c-43 -18 -68 -41 -86 -76 -14 -27 -4 -48 306 -668 176
-352 324 -660 330 -684 6 -28 6 -62 1 -93 -6 -29 -133 -298 -330 -697 l-321
-649 21 -33 c22 -36 124 -94 138 -78 5 5 145 187 311 404 286 372 521 669 694
875 84 100 126 173 126 219 -1 56 -36 112 -182 287 -192 231 -444 549 -722
909 -125 162 -233 296 -239 297 -7 1 -28 -4 -47 -13z"/>
<path d="M1700 3228 c-25 -13 -55 -38 -67 -56 l-21 -32 319 -645 c179 -362
324 -665 329 -693 8 -33 8 -63 1 -93 -6 -25 -154 -337 -330 -694 l-320 -648
17 -29 c18 -32 84 -76 119 -80 17 -2 83 78 345 418 341 442 417 539 612 774
252 304 252 303 38 561 -199 240 -488 604 -746 939 -126 162 -233 296 -239
298 -7 1 -32 -8 -57 -20z"/>
</g>
</svg>
